<svg width="25" height="24" viewBox="0 0 25 24" fill="none" xmlns="http://www.w3.org/2000/svg">
<path d="M16.1458 14H15.3229L15.0313 13.73C16.0521 12.59 16.6667 11.11 16.6667 9.5C16.6667 5.91 13.6354 3 9.89583 3C6.15625 3 3.125 5.91 3.125 9.5C3.125 13.09 6.15625 16 9.89583 16C11.5729 16 13.1146 15.41 14.3021 14.43L14.5833 14.71V15.5L19.7917 20.49L21.3438 19L16.1458 14ZM9.89583 14C7.30208 14 5.20833 11.99 5.20833 9.5C5.20833 7.01 7.30208 5 9.89583 5C12.4896 5 14.5833 7.01 14.5833 9.5C14.5833 11.99 12.4896 14 9.89583 14Z" fill="black"/>
</svg>
