<svg width="146" height="92" viewBox="0 0 146 92" fill="none" xmlns="http://www.w3.org/2000/svg">
<g clip-path="url(#clip0)">
<path d="M91.7187 8.78125L73.1384 35.6034L71.2017 38.3992V47.7873L78.262 40.8872L74.6562 34.1563" fill="#CED6E0"/>
<path d="M64.6411 36.392L51 32.2188L92.0625 7.9375V44.7812L71.5312 38.5" fill="#DFE4EA"/>
<path d="M71.2019 47.7873L65.002 36.5025L91.7189 8.78125L71.7781 37.5674L71.2019 47.7873Z" fill="#CED6E0"/>
<path d="M92.5271 7.12297C92.2347 6.9561 91.8751 6.95891 91.5854 7.13028L74.4053 17.2894C73.9596 17.5529 73.812 18.1278 74.0755 18.5735C74.3389 19.0191 74.9138 19.1668 75.3596 18.9033L87.686 11.6143L64.7261 35.4374L53.3066 31.9438L68.2095 23.1313C68.6552 22.8676 68.8029 22.2928 68.5394 21.8471C68.2759 21.4015 67.701 21.2536 67.2553 21.5173L50.5229 31.4115C50.2032 31.6006 50.0251 31.9605 50.0691 32.3294C50.1131 32.6983 50.3706 33.0064 50.7257 33.1151L64.3635 37.2873L70.3801 48.2385C70.3863 48.2499 70.3928 48.2594 70.3995 48.268C70.4999 48.4354 70.6503 48.5722 70.838 48.6511C70.9555 48.7005 71.079 48.7246 71.2016 48.7246C71.4419 48.7246 71.6784 48.6322 71.857 48.4575L78.7752 41.6963L91.7882 45.6775C91.8782 45.7049 91.9706 45.7185 92.0625 45.7185C92.2608 45.7185 92.4568 45.6555 92.6201 45.5347C92.8591 45.3579 93.0001 45.0782 93.0001 44.781V7.93728C93.0001 7.60063 92.8195 7.28975 92.5271 7.12297ZM84.3361 17.7923L70.4311 37.8651C70.3226 38.0219 70.2644 38.2081 70.2644 38.3989V44.1337L66.156 36.6557L84.3361 17.7923ZM72.1394 45.56V39.6662L76.7322 41.0713L72.1394 45.56ZM72.7033 37.8779L91.1251 11.2845V43.5138L72.7033 37.8779Z" fill="#4834D4"/>
<path d="M60.4147 39.5854C60.0485 39.2193 59.4551 39.2193 59.0888 39.5854L50.3371 48.3371C49.971 48.7032 49.971 49.2968 50.3371 49.663C50.5203 49.846 50.7602 49.9375 51.0001 49.9375C51.24 49.9375 51.4799 49.846 51.663 49.6629L60.4147 40.9112C60.7808 40.5452 60.7808 39.9515 60.4147 39.5854Z" fill="#4834D4"/>
<path d="M47.4311 51.2434L45.2748 53.3996C44.9087 53.7657 44.9087 54.3594 45.2748 54.7255C45.4579 54.9085 45.6978 55 45.9377 55C46.1776 55 46.4175 54.9084 46.6006 54.7254L48.7569 52.5692C49.123 52.2031 49.123 51.6095 48.7569 51.2433C48.3907 50.8774 47.7973 50.8774 47.4311 51.2434Z" fill="#4834D4"/>
<path d="M57.7107 53.0697C57.4631 53.0697 57.2223 53.17 57.0479 53.3444C56.8735 53.5188 56.7732 53.7597 56.7732 54.0072C56.7732 54.2538 56.8734 54.4956 57.0479 54.67C57.2223 54.8444 57.4641 54.9447 57.7107 54.9447C57.9573 54.9447 58.1991 54.8444 58.3734 54.67C58.5478 54.4956 58.6482 54.2538 58.6482 54.0072C58.6482 53.7597 58.5479 53.5188 58.3734 53.3444C58.1991 53.17 57.9573 53.0697 57.7107 53.0697Z" fill="#4834D4"/>
<path d="M64.0227 46.3691L59.3871 51.0045C59.021 51.3706 59.021 51.9642 59.3871 52.3303C59.5702 52.5134 59.8101 52.6049 60.05 52.6049C60.2899 52.6049 60.5298 52.5133 60.7129 52.3303L65.3485 47.6949C65.7146 47.3288 65.7146 46.7351 65.3485 46.3691C64.9826 46.003 64.3892 46.003 64.0227 46.3691Z" fill="#4834D4"/>
<path d="M80.0216 46.0131L75.3734 50.6613C75.0074 51.0274 75.0074 51.621 75.3734 51.9872C75.5565 52.1702 75.7964 52.2618 76.0364 52.2618C76.2763 52.2618 76.5162 52.1702 76.6993 51.9872L81.3474 47.3391C81.7135 46.973 81.7135 46.3793 81.3474 46.0131C80.9812 45.6471 80.3878 45.6471 80.0216 46.0131Z" fill="#4834D4"/>
<path d="M70.9153 21.3795C71.1618 21.3795 71.4037 21.2801 71.5781 21.1048C71.7524 20.9305 71.8528 20.6895 71.8528 20.443C71.8528 20.1955 71.7525 19.9536 71.5781 19.7792C71.4037 19.6048 71.1618 19.5045 70.9153 19.5045C70.6687 19.5045 70.4268 19.6048 70.2525 19.7792C70.0782 19.9536 69.9778 20.1955 69.9778 20.443C69.9778 20.6895 70.0781 20.9305 70.2525 21.1048C70.4268 21.2801 70.6687 21.3795 70.9153 21.3795Z" fill="#4834D4"/>
</g>
<path d="M17.4609 78.942H12.8849V85H10.8829V67.008H17.4609C19.4195 67.008 20.8669 67.4847 21.8029 68.438C22.7389 69.3913 23.2069 70.8473 23.2069 72.806C23.2069 76.8967 21.2915 78.942 17.4609 78.942ZM12.8849 77.174H17.4349C19.9135 77.174 21.1529 75.718 21.1529 72.806C21.1529 71.4193 20.8582 70.4053 20.2689 69.764C19.6795 69.1053 18.7349 68.776 17.4349 68.776H12.8849V77.174ZM25.957 85V72H27.907V85H25.957ZM25.957 69.062V66.8H27.907V69.062H25.957ZM31.8005 85V66.332H33.7505V85H31.8005ZM37.09 78.474C37.09 76.0993 37.5147 74.3833 38.364 73.326C39.2134 72.2687 40.6434 71.74 42.654 71.74C44.682 71.74 46.112 72.2687 46.944 73.326C47.7934 74.3833 48.218 76.0993 48.218 78.474C48.218 80.8487 47.8194 82.5733 47.022 83.648C46.2247 84.7227 44.7687 85.26 42.654 85.26C40.5394 85.26 39.0834 84.7227 38.286 83.648C37.4887 82.5733 37.09 80.8487 37.09 78.474ZM39.092 78.448C39.092 80.3373 39.3174 81.6633 39.768 82.426C40.236 83.1887 41.198 83.57 42.654 83.57C44.1274 83.57 45.0894 83.1973 45.54 82.452C45.9907 81.6893 46.216 80.3547 46.216 78.448C46.216 76.5413 45.9647 75.2327 45.462 74.522C44.9594 73.794 44.0234 73.43 42.654 73.43C41.302 73.43 40.366 73.794 39.846 74.522C39.3434 75.2327 39.092 76.5413 39.092 78.448ZM58.0308 73.69H53.8968V79.904C53.8968 81.3947 54.0008 82.374 54.2088 82.842C54.4341 83.31 54.9541 83.544 55.7688 83.544L58.0828 83.388L58.2128 85C57.0515 85.1907 56.1675 85.286 55.5608 85.286C54.2088 85.286 53.2728 84.9567 52.7528 84.298C52.2328 83.6393 51.9728 82.3827 51.9728 80.528V73.69H50.1268V72H51.9728V68.022H53.8968V72H58.0308V73.69ZM66.1769 85V67.32H77.4609V70.44H69.7649V75.64H76.0569V78.76H69.7649V85H66.1769ZM79.9478 73.482C80.8665 72.286 82.4005 71.688 84.5498 71.688C86.6991 71.688 88.2331 72.286 89.1518 73.482C90.0705 74.6607 90.5298 76.3247 90.5298 78.474C90.5298 83.0327 88.5365 85.312 84.5498 85.312C80.5631 85.312 78.5698 83.0327 78.5698 78.474C78.5698 76.3247 79.0291 74.6607 79.9478 73.482ZM82.6258 81.412C82.9898 82.036 83.6311 82.348 84.5498 82.348C85.4685 82.348 86.1011 82.036 86.4478 81.412C86.8118 80.788 86.9938 79.8087 86.9938 78.474C86.9938 77.1393 86.8118 76.1687 86.4478 75.562C86.1011 74.9553 85.4685 74.652 84.5498 74.652C83.6311 74.652 82.9898 74.9553 82.6258 75.562C82.2791 76.1687 82.1058 77.1393 82.1058 78.474C82.1058 79.8087 82.2791 80.788 82.6258 81.412ZM93.0837 85V72H96.5417V73.378C97.9977 72.5113 99.3843 71.948 100.702 71.688V75.198C99.2977 75.4927 98.093 75.796 97.0877 76.108L96.5677 76.29V85H93.0837ZM110.428 72H113.912V85H110.454V84.272C109.206 84.9653 108.122 85.312 107.204 85.312C105.401 85.312 104.188 84.818 103.564 83.83C102.94 82.8247 102.628 81.152 102.628 78.812V72H106.112V78.864C106.112 80.1467 106.216 81.022 106.424 81.49C106.632 81.958 107.134 82.192 107.932 82.192C108.694 82.192 109.414 82.0707 110.09 81.828L110.428 81.724V72ZM120.613 85H117.129V72H120.587V72.728C121.783 72.0347 122.805 71.688 123.655 71.688C125.059 71.688 126.142 72.0953 126.905 72.91C128.499 72.0953 129.955 71.688 131.273 71.688C132.989 71.688 134.176 72.1907 134.835 73.196C135.511 74.184 135.849 75.77 135.849 77.954V85H132.365V78.058C132.365 76.9487 132.243 76.134 132.001 75.614C131.758 75.0767 131.273 74.808 130.545 74.808C129.99 74.808 129.314 74.9293 128.517 75.172L128.127 75.302C128.196 76.602 128.231 77.59 128.231 78.266V85H124.747V78.318C124.747 77.0353 124.634 76.134 124.409 75.614C124.183 75.0767 123.689 74.808 122.927 74.808C122.251 74.808 121.583 74.9293 120.925 75.172L120.613 75.276V85Z" fill="black"/>
<defs>
<clipPath id="clip0">
<rect width="48" height="48" fill="white" transform="translate(45 7)"/>
</clipPath>
</defs>
</svg>
