<svg width="152" height="32" viewBox="0 0 152 32" fill="none" xmlns="http://www.w3.org/2000/svg">
<g clip-path="url(#clip0)">
<path d="M31.1459 1.1875L18.759 19.0689L17.4679 20.9328V27.1916L22.1747 22.5914L19.7709 18.1042" fill="#CED6E0"/>
<path d="M13.0941 19.5947L4 16.8125L31.375 0.625V25.1875L17.6875 21" fill="#DFE4EA"/>
<path d="M17.4679 27.1916L13.3346 19.6683L31.1459 1.1875L17.852 20.3782L17.4679 27.1916Z" fill="#CED6E0"/>
<path d="M31.6847 0.0818388C31.4898 -0.0294112 31.25 -0.0275362 31.0569 0.0867138L19.6035 6.85946C19.3064 7.03515 19.2079 7.4184 19.3836 7.71553C19.5593 8.01259 19.9425 8.11103 20.2397 7.9354L28.4573 3.07609L13.1507 18.9582L5.53769 16.629L15.473 10.754C15.7701 10.5783 15.8686 10.195 15.6929 9.8979C15.5173 9.60084 15.1339 9.50228 14.8368 9.67803L3.68188 16.2742C3.46875 16.4003 3.35006 16.6402 3.37938 16.8862C3.40869 17.1321 3.58038 17.3375 3.81713 17.4099L12.9089 20.1914L16.92 27.4922C16.9242 27.4998 16.9285 27.5062 16.9329 27.5118C16.9999 27.6235 17.1002 27.7147 17.2253 27.7673C17.3036 27.8002 17.3859 27.8163 17.4677 27.8163C17.6279 27.8163 17.7856 27.7547 17.9046 27.6382L22.5168 23.1307L31.1921 25.7848C31.2521 25.8032 31.3137 25.8122 31.3749 25.8122C31.5072 25.8122 31.6378 25.7702 31.7467 25.6897C31.906 25.5718 32 25.3853 32 25.1872V0.624714C32 0.400276 31.8796 0.193026 31.6847 0.0818388ZM26.224 7.19471L16.9541 20.5766C16.8817 20.6812 16.8429 20.8053 16.8429 20.9325V24.7557L14.1039 19.7703L26.224 7.19471ZM18.0929 25.7065V21.7773L21.1548 22.7141L18.0929 25.7065ZM18.4688 20.5852L30.75 2.85621V24.3424L18.4688 20.5852Z" fill="#4834D4"/>
<path d="M10.2765 21.7236C10.0323 21.4795 9.6367 21.4795 9.39252 21.7236L3.55802 27.5581C3.31395 27.8021 3.31395 28.1979 3.55802 28.442C3.68014 28.564 3.84008 28.625 4.00002 28.625C4.15995 28.625 4.31989 28.564 4.44195 28.4419L10.2765 22.6074C10.5205 22.3634 10.5205 21.9677 10.2765 21.7236Z" fill="#4834D4"/>
<path d="M1.62079 29.4956L0.183291 30.9331C-0.0607715 31.1771 -0.0607715 31.5729 0.183291 31.817C0.305354 31.939 0.465291 32 0.625229 32C0.785166 32 0.945104 31.9389 1.06717 31.8169L2.50467 30.3794C2.74873 30.1354 2.74873 29.7396 2.50467 29.4955C2.26054 29.2516 1.86492 29.2516 1.62079 29.4956Z" fill="#4834D4"/>
<path d="M8.47376 30.7131C8.30869 30.7131 8.14813 30.78 8.03188 30.8962C7.91563 31.0125 7.84875 31.1731 7.84875 31.3381C7.84875 31.5025 7.91557 31.6637 8.03188 31.78C8.14813 31.8962 8.30938 31.9631 8.47376 31.9631C8.63813 31.9631 8.79938 31.8962 8.91557 31.78C9.03182 31.6637 9.09876 31.5025 9.09876 31.3381C9.09876 31.1731 9.03188 31.0125 8.91557 30.8962C8.79938 30.78 8.63813 30.7131 8.47376 30.7131Z" fill="#4834D4"/>
<path d="M12.6818 26.2459L9.59143 29.3363C9.34737 29.5803 9.34737 29.9761 9.59143 30.2201C9.7135 30.3422 9.87343 30.4032 10.0334 30.4032C10.1933 30.4032 10.3532 30.3421 10.4753 30.2201L13.5657 27.1298C13.8097 26.8857 13.8097 26.49 13.5657 26.2459C13.3217 26.0019 12.9261 26.0019 12.6818 26.2459Z" fill="#4834D4"/>
<path d="M23.3476 26.0087L20.2489 29.1074C20.0048 29.3515 20.0048 29.7473 20.2489 29.9914C20.3709 30.1134 20.5309 30.1744 20.6908 30.1744C20.8507 30.1744 21.0107 30.1134 21.1327 29.9914L24.2315 26.8926C24.4756 26.6486 24.4756 26.2528 24.2315 26.0087C23.9874 25.7647 23.5918 25.7647 23.3476 26.0087Z" fill="#4834D4"/>
<path d="M17.2769 9.58625C17.4412 9.58625 17.6025 9.52 17.7187 9.40312C17.8349 9.28687 17.9019 9.12625 17.9019 8.96187C17.9019 8.79687 17.835 8.63562 17.7187 8.51937C17.6025 8.40312 17.4412 8.33625 17.2769 8.33625C17.1125 8.33625 16.9512 8.40312 16.835 8.51937C16.7188 8.63562 16.6519 8.79687 16.6519 8.96187C16.6519 9.12625 16.7187 9.28687 16.835 9.40312C16.9512 9.52 17.1125 9.58625 17.2769 9.58625Z" fill="#4834D4"/>
</g>
<path d="M49.76 20.34H46.24V25H44.7V11.16H49.76C51.2667 11.16 52.38 11.5267 53.1 12.26C53.82 12.9933 54.18 14.1133 54.18 15.62C54.18 18.7667 52.7067 20.34 49.76 20.34ZM46.24 18.98H49.74C51.6467 18.98 52.6 17.86 52.6 15.62C52.6 14.5533 52.3733 13.7733 51.92 13.28C51.4667 12.7733 50.74 12.52 49.74 12.52H46.24V18.98ZM56.2955 25V15H57.7955V25H56.2955ZM56.2955 12.74V11H57.7955V12.74H56.2955ZM60.7905 25V10.64H62.2905V25H60.7905ZM64.8594 19.98C64.8594 18.1533 65.186 16.8333 65.8394 16.02C66.4927 15.2067 67.5927 14.8 69.1394 14.8C70.6994 14.8 71.7994 15.2067 72.4394 16.02C73.0927 16.8333 73.4194 18.1533 73.4194 19.98C73.4194 21.8067 73.1127 23.1333 72.4994 23.96C71.886 24.7867 70.766 25.2 69.1394 25.2C67.5127 25.2 66.3927 24.7867 65.7794 23.96C65.166 23.1333 64.8594 21.8067 64.8594 19.98ZM66.3994 19.96C66.3994 21.4133 66.5727 22.4333 66.9194 23.02C67.2794 23.6067 68.0194 23.9 69.1394 23.9C70.2727 23.9 71.0127 23.6133 71.3594 23.04C71.706 22.4533 71.8794 21.4267 71.8794 19.96C71.8794 18.4933 71.686 17.4867 71.2994 16.94C70.9127 16.38 70.1927 16.1 69.1394 16.1C68.0994 16.1 67.3794 16.38 66.9794 16.94C66.5927 17.4867 66.3994 18.4933 66.3994 19.96ZM80.9677 16.3H77.7877V21.08C77.7877 22.2267 77.8677 22.98 78.0277 23.34C78.201 23.7 78.601 23.88 79.2277 23.88L81.0077 23.76L81.1077 25C80.2143 25.1467 79.5343 25.22 79.0677 25.22C78.0277 25.22 77.3077 24.9667 76.9077 24.46C76.5077 23.9533 76.3077 22.9867 76.3077 21.56V16.3H74.8877V15H76.3077V11.94H77.7877V15H80.9677V16.3ZM87.2339 25V11.4H95.9139V13.8H89.9939V17.8H94.8339V20.2H89.9939V25H87.2339ZM97.8269 16.14C98.5335 15.22 99.7135 14.76 101.367 14.76C103.02 14.76 104.2 15.22 104.907 16.14C105.614 17.0467 105.967 18.3267 105.967 19.98C105.967 23.4867 104.434 25.24 101.367 25.24C98.3002 25.24 96.7669 23.4867 96.7669 19.98C96.7669 18.3267 97.1202 17.0467 97.8269 16.14ZM99.8869 22.24C100.167 22.72 100.66 22.96 101.367 22.96C102.074 22.96 102.56 22.72 102.827 22.24C103.107 21.76 103.247 21.0067 103.247 19.98C103.247 18.9533 103.107 18.2067 102.827 17.74C102.56 17.2733 102.074 17.04 101.367 17.04C100.66 17.04 100.167 17.2733 99.8869 17.74C99.6202 18.2067 99.4869 18.9533 99.4869 19.98C99.4869 21.0067 99.6202 21.76 99.8869 22.24ZM107.931 25V15H110.591V16.06C111.711 15.3933 112.778 14.96 113.791 14.76V17.46C112.711 17.6867 111.785 17.92 111.011 18.16L110.611 18.3V25H107.931ZM121.273 15H123.953V25H121.293V24.44C120.333 24.9733 119.499 25.24 118.793 25.24C117.406 25.24 116.473 24.86 115.993 24.1C115.513 23.3267 115.273 22.04 115.273 20.24V15H117.953V20.28C117.953 21.2667 118.033 21.94 118.193 22.3C118.353 22.66 118.739 22.84 119.353 22.84C119.939 22.84 120.493 22.7467 121.013 22.56L121.273 22.48V15ZM129.108 25H126.428V15H129.088V15.56C130.008 15.0267 130.794 14.76 131.448 14.76C132.528 14.76 133.361 15.0733 133.948 15.7C135.174 15.0733 136.294 14.76 137.308 14.76C138.628 14.76 139.541 15.1467 140.048 15.92C140.568 16.68 140.828 17.9 140.828 19.58V25H138.148V19.66C138.148 18.8067 138.054 18.18 137.868 17.78C137.681 17.3667 137.308 17.16 136.748 17.16C136.321 17.16 135.801 17.2533 135.188 17.44L134.888 17.54C134.941 18.54 134.968 19.3 134.968 19.82V25H132.288V19.86C132.288 18.8733 132.201 18.18 132.028 17.78C131.854 17.3667 131.474 17.16 130.888 17.16C130.368 17.16 129.854 17.2533 129.348 17.44L129.108 17.52V25Z" fill="black"/>
<defs>
<clipPath id="clip0">
<rect width="32" height="32" fill="white"/>
</clipPath>
</defs>
</svg>
